<svg width="17" height="11" viewBox="0 0 17 11" fill="none" xmlns="http://www.w3.org/2000/svg">
<path d="M14.1423 6.0896L10.8193 9.4126C10.6808 9.5511 10.61 9.72519 10.6068 9.93485C10.6036 10.1444 10.6745 10.3216 10.8193 10.4666C10.9641 10.6114 11.1398 10.6839 11.3463 10.6839C11.5526 10.6839 11.7282 10.6114 11.873 10.4666L16.3673 5.97235C16.461 5.87869 16.527 5.77994 16.5653 5.6761C16.6038 5.57227 16.623 5.4601 16.623 5.3396C16.623 5.2191 16.6038 5.10694 16.5653 5.0031C16.527 4.89927 16.461 4.80052 16.3673 4.70685L11.873 0.212602C11.7345 0.0742683 11.5605 0.00343497 11.351 0.000101633C11.1414 -0.00306503 10.9641 0.0677683 10.8193 0.212602C10.6745 0.357602 10.602 0.533269 10.602 0.739602C10.602 0.945935 10.6745 1.1216 10.8193 1.2666L14.1423 4.5896H0.750049C0.537214 4.5896 0.359049 4.66144 0.215548 4.8051C0.0718822 4.9486 4.76837e-05 5.12677 4.76837e-05 5.3396C4.76837e-05 5.55244 0.0718822 5.7306 0.215548 5.8741C0.359049 6.01777 0.537214 6.0896 0.750049 6.0896H14.1423Z" fill="black"/>
</svg>
