<svg width="13" height="16" viewBox="0 0 13 16" fill="none" xmlns="http://www.w3.org/2000/svg">
<path d="M0.625 13.6538C0.447917 13.6538 0.299514 13.5939 0.179792 13.4742C0.0599307 13.3543 0 13.2058 0 13.0285C0 12.8515 0.0599307 12.7031 0.179792 12.5833C0.299514 12.4638 0.447917 12.404 0.625 12.404H1.50646V6.18583C1.50646 5.06514 1.85236 4.07424 2.54417 3.21312C3.23583 2.35201 4.12389 1.80125 5.20833 1.56083V1.04167C5.20833 0.752361 5.30951 0.506389 5.51188 0.30375C5.71424 0.10125 5.95993 0 6.24896 0C6.53813 0 6.78417 0.10125 6.98708 0.30375C7.19014 0.506389 7.29167 0.752361 7.29167 1.04167V1.56083C8.37611 1.80125 9.26417 2.35201 9.95583 3.21312C10.6476 4.07424 10.9935 5.06514 10.9935 6.18583V12.404H11.875C12.0521 12.404 12.2005 12.4638 12.3202 12.5835C12.4401 12.7034 12.5 12.8519 12.5 13.0292C12.5 13.2063 12.4401 13.3547 12.3202 13.4744C12.2005 13.594 12.0521 13.6538 11.875 13.6538H0.625ZM6.24854 15.9935C5.83396 15.9935 5.47951 15.846 5.18521 15.551C4.89076 15.256 4.74354 14.9014 4.74354 14.4871H7.75646C7.75646 14.9028 7.60882 15.2578 7.31354 15.5521C7.01826 15.8464 6.66326 15.9935 6.24854 15.9935ZM2.75646 12.404H9.74354V6.18583C9.74354 5.22111 9.4025 4.39771 8.72042 3.71562C8.03819 3.0334 7.21472 2.69229 6.25 2.69229C5.28528 2.69229 4.46181 3.0334 3.77958 3.71562C3.0975 4.39771 2.75646 5.22111 2.75646 6.18583V12.404Z" fill="white"/>
</svg>
