<svg width="16" height="16" viewBox="0 0 16 16" fill="none" xmlns="http://www.w3.org/2000/svg">
<path d="M14.875 9.7916V13.3333C14.875 14.2454 14.2193 15.0299 13.3151 15.15C11.5762 15.3808 9.80202 15.5 8 15.5C6.19798 15.5 4.42378 15.3808 2.68487 15.15C1.78075 15.0299 1.125 14.2454 1.125 13.3333V9.79159M14.875 9.7916C15.2683 9.45636 15.5 8.94906 15.5 8.4074V5.25474C15.5 4.35396 14.8601 3.57568 13.9692 3.44238C13.0314 3.30206 12.0829 3.19429 11.125 3.12027M14.875 9.7916C14.7137 9.92913 14.5251 10.0377 14.3143 10.1078C12.3294 10.7677 10.2064 11.125 8.00002 11.125C5.79357 11.125 3.67058 10.7677 1.68574 10.1078C1.47487 10.0377 1.28634 9.92912 1.125 9.79159M1.125 9.79159C0.731732 9.45635 0.5 8.94905 0.5 8.40739V5.25474C0.5 4.35396 1.13992 3.57568 2.03078 3.44238C2.96861 3.30206 3.91708 3.19429 4.875 3.12027M11.125 3.12027V2.375C11.125 1.33947 10.2855 0.5 9.25 0.5H6.75C5.71447 0.5 4.875 1.33947 4.875 2.375V3.12027M11.125 3.12027C10.0938 3.04058 9.05164 3 8 3C6.94836 3 5.9062 3.04058 4.875 3.12027M8 8.625H8.00625V8.63125H8V8.625Z" stroke="#333333" stroke-linecap="round" stroke-linejoin="round"/>
</svg>
