<svg width="32" height="32" viewBox="0 0 32 32" fill="none" xmlns="http://www.w3.org/2000/svg">
<g clip-path="url(#clip0_102_2954)">
<path d="M31.3627 8.24705C31.1817 7.56627 30.8252 6.94494 30.3287 6.44526C29.8322 5.94557 29.2132 5.58505 28.5336 5.39978C26.0317 4.72705 16.0317 4.72705 16.0317 4.72705C16.0317 4.72705 6.03174 4.72705 3.52992 5.39978C2.85031 5.58505 2.23128 5.94557 1.73479 6.44526C1.23829 6.94494 0.881746 7.56627 0.700829 8.24705C0.0317384 10.7598 0.0317383 15.9998 0.0317383 15.9998C0.0317383 15.9998 0.0317384 21.2398 0.700829 23.7525C0.881746 24.4333 1.23829 25.0546 1.73479 25.5543C2.23128 26.054 2.85031 26.4145 3.52992 26.5998C6.03174 27.2725 16.0317 27.2725 16.0317 27.2725C16.0317 27.2725 26.0317 27.2725 28.5336 26.5998C29.2132 26.4145 29.8322 26.054 30.3287 25.5543C30.8252 25.0546 31.1817 24.4333 31.3627 23.7525C32.0317 21.2398 32.0317 15.9998 32.0317 15.9998C32.0317 15.9998 32.0317 10.7598 31.3627 8.24705Z" fill="#FF0302"/>
<path d="M12.759 20.7581V11.2417L21.1227 15.9999L12.759 20.7581Z" fill="#FEFEFE"/>
</g>
<defs>
<clipPath id="clip0_102_2954">
<rect width="32" height="32" fill="white"/>
</clipPath>
</defs>
</svg>
