<svg width="14" height="9" viewBox="0 0 14 9" fill="none" xmlns="http://www.w3.org/2000/svg">
<path d="M2.06729 5.07467L4.83646 7.84384C4.95187 7.95925 5.0109 8.10432 5.01354 8.27904C5.01618 8.45363 4.95715 8.60133 4.83646 8.72217C4.71576 8.84286 4.56937 8.90321 4.39729 8.90321C4.22535 8.90321 4.07903 8.84286 3.95833 8.72217L0.213125 4.97696C0.135069 4.8989 0.0800694 4.81661 0.0481249 4.73008C0.0160416 4.64356 0 4.55009 0 4.44967C0 4.34925 0.0160416 4.25578 0.0481249 4.16925C0.0800694 4.08272 0.135069 4.00043 0.213125 3.92238L3.95833 0.177168C4.07375 0.0618903 4.21875 0.00286247 4.39333 8.46941e-05C4.56806 -0.00255419 4.71576 0.0564736 4.83646 0.177168C4.95715 0.298001 5.0175 0.444391 5.0175 0.616335C5.0175 0.788279 4.95715 0.934669 4.83646 1.0555L2.06729 3.82467H13.2275C13.4049 3.82467 13.5533 3.88453 13.6729 4.00425C13.7926 4.12384 13.8525 4.27231 13.8525 4.44967C13.8525 4.62703 13.7926 4.7755 13.6729 4.89509C13.5533 5.01481 13.4049 5.07467 13.2275 5.07467H2.06729Z" fill="white"/>
</svg>
