<svg width="19" height="20" viewBox="0 0 19 20" fill="none" xmlns="http://www.w3.org/2000/svg">
<path d="M11.9184 14.8317C13.8129 14.607 15.6398 14.1616 17.3727 13.5219C15.9359 11.927 15.0613 9.81564 15.0613 7.5V6.79919C15.0615 6.78281 15.0615 6.76641 15.0615 6.75C15.0615 3.43629 12.3752 0.75 9.06152 0.75C5.74781 0.75 3.06152 3.43629 3.06152 6.75L3.06133 7.5C3.06133 9.81564 2.1868 11.927 0.75 13.5219C2.48293 14.1616 4.30996 14.607 6.20466 14.8318M11.9184 14.8317C10.9815 14.9428 10.0281 15 9.06133 15C8.09469 15 7.1414 14.9429 6.20466 14.8318M11.9184 14.8317C12.0113 15.1211 12.0615 15.4297 12.0615 15.75C12.0615 17.4069 10.7184 18.75 9.06152 18.75C7.40467 18.75 6.06152 17.4069 6.06152 15.75C6.06152 15.4297 6.11171 15.1212 6.20466 14.8318" stroke="#333333" stroke-width="1.5" stroke-linecap="round" stroke-linejoin="round"/>
</svg>
