<svg width="15" height="18" viewBox="0 0 15 18" fill="none" xmlns="http://www.w3.org/2000/svg">
<path d="M4.875 8.625H8M4.875 11.125H8M4.875 13.625H8M10.5 14.25H12.375C13.4105 14.25 14.25 13.4105 14.25 12.375V3.71518C14.25 2.76936 13.5458 1.96679 12.6033 1.88856C12.2922 1.86274 11.9801 1.84048 11.6671 1.82183M6.83294 1.82183C6.77902 1.99668 6.75 2.18245 6.75 2.375C6.75 2.72018 7.02982 3 7.375 3H11.125C11.4702 3 11.75 2.72018 11.75 2.375C11.75 2.18245 11.721 1.99668 11.6671 1.82183M6.83294 1.82183C7.06896 1.05631 7.78202 0.5 8.625 0.5H9.875C10.718 0.5 11.431 1.05631 11.6671 1.82183M6.83294 1.82183C6.51989 1.84048 6.20781 1.86274 5.89674 1.88856C4.95416 1.96679 4.25 2.76937 4.25 3.71518V5.5M4.25 5.5H1.4375C0.919733 5.5 0.5 5.91973 0.5 6.4375V15.8125C0.5 16.3303 0.919733 16.75 1.4375 16.75H9.5625C10.0803 16.75 10.5 16.3303 10.5 15.8125V6.4375C10.5 5.91973 10.0803 5.5 9.5625 5.5H4.25ZM3 8.625H3.00625V8.63125H3V8.625ZM3 11.125H3.00625V11.1313H3V11.125ZM3 13.625H3.00625V13.6313H3V13.625Z" stroke="#333333" stroke-linecap="round" stroke-linejoin="round"/>
</svg>
