<svg width="10" height="10" viewBox="0 0 10 10" fill="none" xmlns="http://www.w3.org/2000/svg">
<path d="M9.22888 5.851L5.851 9.22888C5.76017 9.31921 5.65796 9.387 5.54437 9.43225C5.43079 9.47742 5.31754 9.5 5.20463 9.5C5.09163 9.5 4.97863 9.47742 4.86562 9.43225C4.75262 9.387 4.65096 9.31921 4.56063 9.22888L0.2635 4.9365C0.17825 4.8545 0.113 4.75825 0.06775 4.64775C0.0225833 4.53725 0 4.421 0 4.299V0.908625C0 0.658792 0.0882917 0.444875 0.264875 0.266875C0.441542 0.088958 0.656125 0 0.908625 0H4.299C4.41975 0 4.53671 0.0245001 4.64988 0.0735001C4.76312 0.122417 4.86125 0.188292 4.94425 0.271125L9.22888 4.5635C9.32046 4.65433 9.38725 4.7565 9.42925 4.87C9.47125 4.98358 9.49225 5.09746 9.49225 5.21163C9.49225 5.32579 9.47125 5.43804 9.42925 5.54838C9.38725 5.65879 9.32046 5.75967 9.22888 5.851ZM5.31638 8.70188L8.69425 5.324C8.72625 5.292 8.74225 5.25433 8.74225 5.211C8.74225 5.16775 8.72625 5.13013 8.69425 5.09812L4.35388 0.75475H0.908625C0.863792 0.75475 0.826125 0.769208 0.795625 0.798125C0.765208 0.826958 0.75 0.863792 0.75 0.908625V4.29138C0.75 4.31063 0.753208 4.32983 0.759625 4.349C0.766042 4.36825 0.77725 4.38588 0.79325 4.40188L5.09038 8.70188C5.12246 8.73396 5.16013 8.75 5.20338 8.75C5.24663 8.75 5.28429 8.73396 5.31638 8.70188ZM2.0125 2.63938C2.18683 2.63938 2.33492 2.57863 2.45675 2.45713C2.5785 2.33563 2.63937 2.18804 2.63937 2.01438C2.63937 1.83946 2.57863 1.69079 2.45713 1.56837C2.33563 1.44587 2.18804 1.38463 2.01437 1.38463C1.83946 1.38463 1.69079 1.44567 1.56837 1.56775C1.44588 1.68983 1.38463 1.83808 1.38463 2.0125C1.38463 2.18683 1.44567 2.33492 1.56775 2.45675C1.68983 2.5785 1.83808 2.63938 2.0125 2.63938Z" fill="#C91432"/>
<path d="M9.22888 5.851L5.851 9.22888C5.76017 9.31921 5.65796 9.387 5.54437 9.43225C5.43079 9.47742 5.31754 9.5 5.20463 9.5C5.09163 9.5 4.97863 9.47742 4.86562 9.43225C4.75262 9.387 4.65096 9.31921 4.56063 9.22888L0.2635 4.9365C0.17825 4.8545 0.113 4.75825 0.06775 4.64775C0.0225833 4.53725 0 4.421 0 4.299V0.908625C0 0.658792 0.0882917 0.444875 0.264875 0.266875C0.441542 0.088958 0.656125 0 0.908625 0H4.299C4.41975 0 4.53671 0.0245001 4.64988 0.0735001C4.76312 0.122417 4.86125 0.188292 4.94425 0.271125L9.22888 4.5635C9.32046 4.65433 9.38725 4.7565 9.42925 4.87C9.47125 4.98358 9.49225 5.09746 9.49225 5.21163C9.49225 5.32579 9.47125 5.43804 9.42925 5.54838C9.38725 5.65879 9.32046 5.75967 9.22888 5.851ZM5.31638 8.70188L8.69425 5.324C8.72625 5.292 8.74225 5.25433 8.74225 5.211C8.74225 5.16775 8.72625 5.13013 8.69425 5.09812L4.35388 0.75475H0.908625C0.863792 0.75475 0.826125 0.769208 0.795625 0.798125C0.765208 0.826958 0.75 0.863792 0.75 0.908625V4.29138C0.75 4.31063 0.753208 4.32983 0.759625 4.349C0.766042 4.36825 0.77725 4.38588 0.79325 4.40188L5.09038 8.70188C5.12246 8.73396 5.16013 8.75 5.20338 8.75C5.24663 8.75 5.28429 8.73396 5.31638 8.70188ZM2.0125 2.63938C2.18683 2.63938 2.33492 2.57863 2.45675 2.45713C2.5785 2.33563 2.63937 2.18804 2.63937 2.01438C2.63937 1.83946 2.57863 1.69079 2.45713 1.56837C2.33563 1.44587 2.18804 1.38463 2.01437 1.38463C1.83946 1.38463 1.69079 1.44567 1.56837 1.56775C1.44588 1.68983 1.38463 1.83808 1.38463 2.0125C1.38463 2.18683 1.44567 2.33492 1.56775 2.45675C1.68983 2.5785 1.83808 2.63938 2.0125 2.63938Z" fill="white" fill-opacity="0.2"/>
</svg>
