<svg width="96" height="88" viewBox="0 0 96 88" fill="none" xmlns="http://www.w3.org/2000/svg">
<path d="M65.3715 0.518538L20.9742 7.54677C19.1651 7.83315 17.9319 9.5245 18.2198 11.3245L25.2834 55.4994C25.5712 57.2994 27.2711 58.5264 29.0801 58.24L73.4775 51.2118C75.2865 50.9254 76.5197 49.2341 76.2319 47.4341L69.1683 3.2592C68.8805 1.45919 67.1806 0.232157 65.3715 0.518538Z" fill="url(#paint0_linear_102_2788)"/>
<path d="M49.074 3.10449L37.2617 4.96929L39.0126 15.9249H39.3455L39.7401 15.8636L40.2456 15.7777C40.4059 15.5324 40.8251 15.9004 41.0717 16.0722C41.3183 16.2439 41.3307 15.7164 41.5649 15.5692C41.7992 15.4219 42.2431 15.8145 42.3417 15.0907C42.4814 15.1372 42.63 15.1504 42.7757 15.129C42.9214 15.1077 43.0599 15.0526 43.1802 14.968C43.4761 14.968 43.994 15.9249 43.994 15.9249L44.7338 14.3055C45.116 14.8331 45.5969 15.4587 45.8188 14.9557C46.1887 15.4465 46.4353 15.0907 46.6696 14.7594C46.9039 14.4282 47.2491 14.7594 47.5451 14.9435C47.7917 14.7226 48.0013 14.4037 48.2725 14.5018C48.5191 12.6861 49.3329 15.0662 49.6905 14.9067C50.0481 14.7472 49.8508 13.3118 50.492 14.1583C50.6276 14.3301 50.8249 14.1583 50.8249 14.1583L49.074 3.10449Z" fill="#E6B566"/>
<path d="M61.7987 18.4769V18.2928L68.6049 17.2132V17.3972L61.7987 18.4769ZM68.6789 17.8144V17.6303L61.8727 18.71V18.894L68.6789 17.8144ZM69.0488 19.8264V19.6301L63.2783 20.5502V20.7342L69.0488 19.8264ZM69.2215 20.9673V20.7833L63.4509 21.6912V21.8875L69.2215 20.9673ZM69.5914 23.237V23.053L63.8209 23.9608V24.1571L69.5914 23.237ZM70.2079 27.1015V26.9175L64.4374 27.8254V28.0094L70.2079 27.1015ZM70.7504 30.4999V30.3158L64.9676 31.2237V31.42L70.7504 30.4999ZM70.8244 30.9293V30.7452L65.0539 31.6654V31.8494L70.8244 30.9293ZM71.1943 33.248V33.064L65.3498 33.9718V34.1558L71.1943 33.248ZM71.3792 34.757V34.5607L64.61 35.6403V35.8243L71.3792 34.757ZM70.0352 26.3286V26.1446L63.2043 27.2242V27.4205L70.0352 26.3286ZM70.0969 26.6967V26.5126L63.266 27.5923V27.7763L70.0969 26.6967ZM68.7899 18.5627L68.7159 18.0597L61.9097 19.1394L61.9837 19.6424L68.7899 18.5627ZM69.7393 24.5129L69.6653 23.9976L63.9072 24.9423L63.9935 25.4453L69.7393 24.5129ZM69.4681 22.8199L69.3571 22.1206L63.5989 23.0284L63.7099 23.74L69.4681 22.8199ZM68.8762 19.1394V18.8326L62.0823 19.9123V20.2067L68.8762 19.1394ZM69.0488 20.5257V20.2312L63.2783 21.1391V21.4335L69.0488 20.5257ZM69.2461 21.7525V21.4581L63.4756 22.3659V22.6604L69.2461 21.7525ZM69.6037 23.7155V23.421L63.8455 24.3289V24.6233L69.6037 23.7155ZM69.9736 25.9483L69.8873 25.433L64.1168 26.3532L64.2031 26.8562L69.9736 25.9483ZM69.838 25.1509V24.8441L64.0675 25.7643V26.0587L69.838 25.1509ZM70.3805 28.6228V28.3284L64.6223 29.2362V29.5429L70.3805 28.6228ZM71.5149 35.2477V34.9533L64.6346 35.9838V36.2783L71.5149 35.2477ZM70.5408 29.1871V28.8804L64.6716 29.8496V30.1441L70.5408 29.1871ZM70.2818 27.8622L70.1955 27.2978L64.425 28.2179L64.5113 28.77L70.2818 27.8622ZM70.6518 30.1563L70.5654 29.6043L64.7949 30.5121L64.8812 31.0642L70.6518 30.1563ZM70.9107 31.788L70.8244 31.2237L65.0539 32.1438L65.1402 32.6959L70.9107 31.788ZM71.0587 32.745L70.9353 31.9107L65.1648 32.8309L65.3005 33.6651L71.0587 32.745ZM71.2929 34.1926L71.2066 33.6406L64.425 34.757L64.5113 35.3091L71.2929 34.1926ZM61.5644 17.0169L61.4411 16.2931L60.2944 16.4648L60.4054 17.2009L61.5644 17.0169ZM62.7975 21.6053L62.6372 20.5993L60.8246 20.8815L60.9849 21.8875L62.7975 21.6053ZM63.0441 23.2002L62.8838 22.2432L61.0096 22.4886L61.1699 23.4946L63.0441 23.2002ZM63.303 24.7828L63.1427 23.7768L61.3302 24.059L61.4905 25.0772L63.303 24.7828ZM63.5496 26.3777L63.3893 25.3717L61.5891 25.6539L61.7494 26.6599L63.5496 26.3777ZM64.0428 29.3957L63.8825 28.3897L62.07 28.6719L62.2303 29.6779L64.0428 29.3957ZM64.2894 30.9906L64.1168 30.0337L62.3042 30.3158L62.4645 31.3218L64.2894 30.9906ZM64.5483 32.5732L64.388 31.5672L62.5755 31.8494L62.7358 32.8677L64.5483 32.5732ZM64.7949 34.1681L64.6346 33.1621L62.7728 33.5301L62.9331 34.5362L64.7949 34.1681ZM64.7949 37.3579L64.684 36.6218L63.5249 36.8058L63.6482 37.5419L64.7949 37.3579Z" fill="#B97A36"/>
<path d="M45.3626 55.6132L57.1748 53.7484L55.6582 44.2404H55.3253C55.239 44.3753 55.0664 44.1054 54.9431 44.2404C54.8198 44.3753 54.7828 45.136 54.5732 45.0378C54.5732 45.3813 54.3882 45.3813 54.1909 45.0378C54.0553 45.0378 53.9567 45.3691 53.7471 44.7434C53.6484 44.5103 53.6237 44.8661 53.5374 44.9151C53.4511 44.9642 53.3278 44.9151 53.2538 45.2464C53.1799 45.5776 52.8593 44.7556 52.662 44.5348C52.5634 44.8661 52.3907 44.7311 52.3414 45.0133C52.1441 44.6943 52.0455 44.9397 51.9099 45.0133C51.7742 45.0869 51.8482 46.1052 51.6756 45.9702C51.503 45.8353 51.3427 45.8353 51.1577 45.4672C50.8741 44.5225 50.8618 45.0501 50.8495 45.001C50.8495 45.2096 50.7385 45.8475 50.4919 45.8107C50.2453 45.7739 50.048 46.4855 49.937 45.8107C49.7521 45.6144 49.4562 44.4367 49.3205 44.5839C49.0739 44.1177 48.963 44.4612 48.8397 44.5839C48.667 44.4121 48.5561 44.5839 48.3588 44.3753C48.2355 44.498 48.0382 44.2036 47.9889 44.7802C47.9396 45.3568 47.7423 45.4304 47.5943 45.3568C47.4463 45.2832 47.3477 45.5286 47.1258 45.0378C47.107 45.5398 47.0534 46.0399 46.9655 46.5346C46.7929 46.2892 46.7805 47.0008 46.5956 46.6204C46.4969 47.1357 46.3243 47.0744 46.201 47.2952C46.0161 47.1602 45.7941 46.7309 45.6461 46.6572C45.4982 46.5836 45.3009 46.2156 45.1776 46.2278C45.0543 46.2401 44.7707 45.6512 44.6844 45.8107C44.6227 46.2278 44.4994 46.2769 44.1789 45.8107C44.0556 45.639 43.8459 45.8107 43.8459 45.8107L45.3626 55.6132Z" fill="#E6B566"/>
<path d="M27.4715 87.0325C26.4575 87.03 25.4671 86.7287 24.6252 86.1664C23.7833 85.6041 23.1277 84.8062 22.7414 83.8734C22.3551 82.9406 22.2553 81.9149 22.4546 80.9257C22.6539 79.9365 23.1434 79.0282 23.8612 78.3157C24.579 77.6032 25.493 77.1183 26.4877 76.9224C27.4823 76.7264 28.513 76.8282 29.4496 77.2149C30.3861 77.6015 31.1865 78.2556 31.7496 79.0947C32.3126 79.9337 32.6132 80.9199 32.6132 81.9288C32.6132 82.6001 32.4801 83.2647 32.2216 83.8847C31.963 84.5047 31.5841 85.0679 31.1065 85.542C30.6289 86.0161 30.0619 86.3917 29.4382 86.6475C28.8145 86.9033 28.1461 87.0341 27.4715 87.0325Z" fill="url(#paint1_linear_102_2788)"/>
<path d="M27.4715 84.5174C26.9575 84.515 26.4557 84.3611 26.0295 84.0752C25.6033 83.7893 25.2717 83.3842 25.0767 82.911C24.8817 82.4377 24.8319 81.9176 24.9337 81.4163C25.0355 80.915 25.2842 80.4549 25.6486 80.0941C26.0129 79.7333 26.4765 79.488 26.9808 79.3891C27.4852 79.2902 28.0076 79.3421 28.4823 79.5384C28.957 79.7347 29.3626 80.0665 29.6479 80.4919C29.9332 80.9174 30.0855 81.4173 30.0855 81.9288C30.0855 82.2698 30.0178 82.6074 29.8863 82.9223C29.7548 83.2371 29.5621 83.5231 29.3192 83.7636C29.0763 84.0041 28.788 84.1946 28.4709 84.3239C28.1539 84.4533 27.8142 84.519 27.4715 84.5174Z" fill="#BC3138"/>
<path d="M27.4716 83.5851C27.0368 83.5848 26.6199 83.4127 26.3126 83.1066C25.206 81.2376 24.2137 79.3038 23.341 77.316L22.6875 75.9664H29.1362V81.9657C29.1445 82.1953 29.1025 82.424 29.0131 82.6359C28.9237 82.8477 28.789 83.0377 28.6183 83.1925C28.3041 83.4758 27.8956 83.6331 27.4716 83.6342V83.5851Z" fill="#878A8C"/>
<path d="M28.6306 76.4694H23.5012C23.8711 77.2177 26.1399 82.076 26.6701 82.7262C26.8282 82.8849 27.0297 82.9939 27.2495 83.0396C27.4694 83.0853 27.6979 83.0659 27.9067 82.9835C28.1155 82.9012 28.2954 82.7597 28.4241 82.5766C28.5528 82.3934 28.6246 82.1767 28.6306 81.9533V76.4694Z" fill="url(#paint2_linear_102_2788)"/>
<path d="M27.4715 82.714C27.2622 82.714 27.0615 82.6313 26.9135 82.4841C26.7655 82.3368 26.6824 82.1371 26.6824 81.9289C26.6824 81.7206 26.7655 81.5209 26.9135 81.3737C27.0615 81.2264 27.2622 81.1437 27.4715 81.1437C27.6808 81.1437 27.8815 81.2264 28.0295 81.3737C28.1775 81.5209 28.2606 81.7206 28.2606 81.9289C28.2606 82.1371 28.1775 82.3368 28.0295 82.4841C27.8815 82.6313 27.6808 82.714 27.4715 82.714Z" fill="url(#paint3_linear_102_2788)"/>
<path d="M66.6691 87.0325C65.6547 87.0325 64.6629 86.7332 63.8194 86.1724C62.9759 85.6116 62.3185 84.8145 61.9302 83.8819C61.542 82.9493 61.4404 81.9232 61.6384 80.9332C61.8363 79.9432 62.3248 79.0338 63.0421 78.32C63.7595 77.6063 64.6735 77.1202 65.6685 76.9233C66.6634 76.7263 67.6948 76.8274 68.6321 77.2137C69.5693 77.6 70.3704 78.2541 70.934 79.0934C71.4977 79.9327 71.7985 80.9194 71.7985 81.9288C71.7985 83.2824 71.2581 84.5805 70.2961 85.5377C69.3342 86.4948 68.0295 87.0325 66.6691 87.0325Z" fill="url(#paint4_linear_102_2788)"/>
<path d="M66.669 84.5175C66.1545 84.5175 65.6515 84.3656 65.2236 84.0812C64.7958 83.7968 64.4623 83.3925 64.2654 82.9195C64.0685 82.4464 64.017 81.926 64.1174 81.4238C64.2178 80.9217 64.4655 80.4604 64.8294 80.0984C65.1932 79.7364 65.6568 79.4898 66.1615 79.39C66.6662 79.2901 67.1893 79.3413 67.6647 79.5373C68.14 79.7332 68.5464 80.065 68.8322 80.4907C69.1181 80.9164 69.2707 81.4168 69.2707 81.9288C69.2707 82.6154 68.9966 83.2738 68.5087 83.7593C68.0208 84.2447 67.359 84.5175 66.669 84.5175Z" fill="#BC3138"/>
<path d="M66.6568 83.5851C66.4434 83.5847 66.2321 83.5422 66.0353 83.46C65.8385 83.3779 65.66 83.2578 65.5101 83.1066C64.403 81.2359 63.4066 79.3023 62.5262 77.316L61.885 75.9664H68.3337V81.9657C68.3422 82.1965 68.2991 82.4263 68.2074 82.6385C68.1157 82.8507 67.9777 83.0399 67.8035 83.1925C67.4893 83.4758 67.0808 83.6331 66.6568 83.6342V83.5851Z" fill="#878A8C"/>
<path d="M67.8157 76.4694H62.6987C63.0563 77.2177 65.3374 82.076 65.8676 82.7262C66.0233 82.8859 66.223 82.9962 66.4416 83.0433C66.6602 83.0904 66.8878 83.0722 67.096 82.9909C67.3042 82.9096 67.4836 82.7689 67.6117 82.5865C67.7397 82.4041 67.8107 82.1881 67.8157 81.9656V76.4694Z" fill="url(#paint5_linear_102_2788)"/>
<path d="M66.6691 82.714C66.5131 82.714 66.3605 82.668 66.2307 82.5817C66.1009 82.4954 65.9998 82.3728 65.9401 82.2293C65.8803 82.0859 65.8647 81.928 65.8952 81.7757C65.9256 81.6234 66.0008 81.4835 66.1111 81.3737C66.2215 81.2638 66.3621 81.1891 66.5152 81.1588C66.6683 81.1285 66.8269 81.144 66.9711 81.2034C67.1153 81.2629 67.2386 81.3635 67.3253 81.4926C67.412 81.6218 67.4583 81.7736 67.4583 81.9288C67.4583 82.1371 67.3751 82.3368 67.2271 82.4841C67.0791 82.6313 66.8784 82.714 66.6691 82.714Z" fill="url(#paint6_linear_102_2788)"/>
<path d="M71.5149 30.9047V23.3842H70.2819V30.9047H61.4412V23.3842H60.2081V30.9047H51.3551V23.3842H50.1221V30.9047H41.2814V23.3842H40.0484V30.9047H31.2076V23.3842H29.9746V30.9047H21.1216V23.3842H19.8886V30.9047H16.8553L17.1019 32.1315H19.9009V40.8911H18.9638L19.2227 42.118H19.9009V45.3445L21.3312 52.178H29.9623V58.3122L31.1953 58.1282V52.178H40.0484V56.7541L41.2814 56.5701V52.178H50.1344V55.196L51.3674 55.012V52.178H60.2205V53.638L61.4535 53.4539V52.2271H69.7024L75.3619 51.3438C75.787 51.287 76.202 51.1714 76.5949 51.0003H71.5149V42.118H79.6404V40.8911H71.5149V32.1192H79.6404V30.8924L71.5149 30.9047ZM29.9746 50.9512H21.1216V42.118H29.9746V50.9512ZM29.9746 40.9279H21.1216V32.1192H29.9746V40.9279ZM40.0607 50.9512H31.2076V42.118H40.0607V50.9512ZM40.0607 40.9279H31.2076V32.1192H40.0607V40.9279ZM50.1344 50.9512H41.2814V42.118H50.1344V50.9512ZM50.1344 40.9279H41.2814V32.1192H50.1344V40.9279ZM60.2081 50.9512H51.3551V42.118H60.2081V50.9512ZM60.2081 40.9279H51.3551V32.1192H60.2081V40.9279ZM70.2819 50.9512H61.4412V42.118H70.2819V50.9512ZM70.2819 40.8911H61.4412V32.1192H70.2819V40.8911Z" fill="url(#paint7_linear_102_2788)"/>
<path d="M22.934 76.3222C21.5037 76.3188 20.0988 75.9449 18.8578 75.2371C17.6168 74.5294 16.5824 73.5123 15.8565 72.2859L15.6839 71.9915C15.051 70.9267 14.6709 69.7322 14.5726 68.499C14.4743 67.2658 14.6604 66.0265 15.1167 64.8758C15.5886 63.6626 16.3173 62.5647 17.2535 61.6566C18.1896 60.7484 19.3111 60.0513 20.542 59.6127L10.9368 14.0602C10.6971 12.9346 10.0767 11.9247 9.17915 11.1992C8.28162 10.4736 7.16119 10.0761 6.00475 10.073H4.66077V6.92004H6.00475C7.88593 6.92897 9.70753 7.57739 11.1675 8.7578C12.6274 9.93821 13.638 11.5797 14.0317 13.41L15.5606 20.6974H81.8598V46.1298C81.867 48.0784 81.1699 49.9647 79.8955 51.4445C78.6211 52.9242 76.8544 53.8987 74.9179 54.1901L22.6628 62.2749C21.63 62.4374 20.6594 62.8709 19.851 63.5308C19.0426 64.1907 18.4256 65.053 18.0636 66.0291C17.7828 66.7351 17.6679 67.4956 17.7277 68.2526C17.7876 69.0096 18.0206 69.7429 18.4089 70.3966L18.5815 70.7033C19.0298 71.4537 19.6671 72.0747 20.4304 72.505C21.1938 72.9353 22.0567 73.16 22.934 73.157H67.7418C68.1604 73.157 68.5618 73.3224 68.8578 73.6169C69.1538 73.9114 69.3201 74.3108 69.3201 74.7273C69.3201 75.1438 69.1538 75.5432 68.8578 75.8377C68.5618 76.1322 68.1604 76.2977 67.7418 76.2977L22.934 76.3222ZM23.6245 58.9379L74.4247 51.0862C75.6078 50.9103 76.6885 50.3187 77.4711 49.4185C78.2537 48.5183 78.6864 47.3691 78.691 46.1788V23.8381H16.2264L23.6245 58.9379Z" fill="url(#paint8_linear_102_2788)"/>
<path d="M15.2647 21.0777L13.6617 13.4836C13.2773 11.7468 12.3091 10.1925 10.917 9.07718C9.52483 7.96191 7.79203 7.35242 6.00472 7.34937H5.03064V9.80304H6.00472C7.2471 9.80668 8.45077 10.2335 9.41541 11.0125C10.3801 11.7915 11.0475 12.8757 11.3067 14.0847L12.7986 21.1881L20.9612 59.8703C19.7119 60.2581 18.5677 60.9236 17.615 61.8162C16.6622 62.7089 15.926 63.8055 15.4619 65.023C15.0298 66.1198 14.8563 67.3006 14.9546 68.4746C15.0529 69.6486 15.4205 70.7846 16.0291 71.7951L16.2018 72.1018C16.897 73.2705 17.885 74.2398 19.0694 74.915C20.2537 75.5902 21.5937 75.9483 22.9587 75.9541H67.7418C68.0688 75.9541 68.3824 75.8248 68.6136 75.5948C68.8449 75.3647 68.9748 75.0526 68.9748 74.7273C68.9748 74.4019 68.8449 74.0898 68.6136 73.8597C68.3824 73.6297 68.0688 73.5004 67.7418 73.5004H22.934C21.9884 73.4985 21.0597 73.2507 20.2399 72.7816C19.4202 72.3124 18.738 71.6383 18.2609 70.8259L18.0759 70.5315C17.662 69.8268 17.4138 69.038 17.3497 68.2243C17.2857 67.4105 17.4075 66.5929 17.706 65.8327C18.1008 64.7926 18.7649 63.8749 19.6311 63.1725C20.4972 62.4701 21.5346 62.0081 22.6381 61.8332L74.8932 53.7606C76.7404 53.4812 78.4252 52.5507 79.6405 51.1388C80.8559 49.7268 81.521 47.9274 81.5145 46.0683V21.0777H15.2647ZM79.0732 46.1297C79.0787 47.4173 78.6182 48.6639 77.776 49.6416C76.9338 50.6192 75.7661 51.2626 74.4864 51.4542L23.3286 59.3673L15.7579 23.47H79.0732V46.1297Z" fill="url(#paint9_linear_102_2788)"/>
<path d="M3.67438 12.085C5.70369 12.085 7.34877 10.4482 7.34877 8.42905C7.34877 6.40991 5.70369 4.77307 3.67438 4.77307C1.64508 4.77307 0 6.40991 0 8.42905C0 10.4482 1.64508 12.085 3.67438 12.085Z" fill="#BC3138"/>
<path d="M5.01837 8.42906C5.02073 8.69803 4.94225 8.96156 4.79301 9.18584C4.64378 9.41011 4.43059 9.5849 4.1808 9.68776C3.93102 9.79063 3.65605 9.81688 3.39116 9.76315C3.12628 9.70942 2.88358 9.57816 2.6942 9.38621C2.50483 9.19426 2.37742 8.95039 2.32833 8.68588C2.27925 8.42137 2.31072 8.14831 2.41871 7.90173C2.5267 7.65514 2.70629 7.44629 2.93442 7.30198C3.16254 7.15767 3.42881 7.08448 3.69904 7.09181C4.0512 7.09824 4.38674 7.24196 4.63348 7.49205C4.88022 7.74214 5.01843 8.07861 5.01837 8.42906Z" fill="#00232F"/>
<path d="M79.1102 63.9065C87.9357 63.9065 95.0901 56.788 95.0901 48.0067C95.0901 39.2255 87.9357 32.1069 79.1102 32.1069C70.2848 32.1069 63.1304 39.2255 63.1304 48.0067C63.1304 56.788 70.2848 63.9065 79.1102 63.9065Z" fill="url(#paint10_linear_102_2788)"/>
<path d="M79.1102 62.054C86.9074 62.054 93.2282 55.7649 93.2282 48.0068C93.2282 40.2487 86.9074 33.9595 79.1102 33.9595C71.313 33.9595 64.9922 40.2487 64.9922 48.0068C64.9922 55.7649 71.313 62.054 79.1102 62.054Z" fill="url(#paint11_linear_102_2788)"/>
<path style="mix-blend-mode:multiply" d="M87.914 46.7308H81.2187V40.339H76.9895V46.7308H70.2942V51.2088L76.9895 50.3009V57.1712H81.2187V50.3009L87.914 51.2088V46.7308Z" fill="url(#paint12_linear_102_2788)"/>
<path d="M87.5687 45.9825H81.1324V39.5907H77.0757V45.9825H70.6517V50.0188H77.0757V56.4229H81.1324V50.0188H87.5687V45.9825Z" fill="white"/>
<defs>
<linearGradient id="paint0_linear_102_2788" x1="51.2788" y1="54.7259" x2="43.2538" y2="4.03226" gradientUnits="userSpaceOnUse">
<stop stop-color="#A96D24"/>
<stop offset="0.06" stop-color="#B67628"/>
<stop offset="0.16" stop-color="#C7822D"/>
<stop offset="0.3" stop-color="#D28A30"/>
<stop offset="0.48" stop-color="#D98F32"/>
<stop offset="1" stop-color="#DB9033"/>
</linearGradient>
<linearGradient id="paint1_linear_102_2788" x1="27.4715" y1="87.0325" x2="27.4715" y2="76.8252" gradientUnits="userSpaceOnUse">
<stop stop-color="#00232F"/>
<stop offset="0.4" stop-color="#0C2F3B"/>
<stop offset="1" stop-color="#264955"/>
</linearGradient>
<linearGradient id="paint2_linear_102_2788" x1="26.0659" y1="83.0697" x2="26.0659" y2="76.4816" gradientUnits="userSpaceOnUse">
<stop stop-color="#EEF0F2"/>
<stop offset="0.66" stop-color="#EEF0F2"/>
<stop offset="0.81" stop-color="#DDE0E2"/>
<stop offset="1" stop-color="#C0C5C7"/>
</linearGradient>
<linearGradient id="paint3_linear_102_2788" x1="27.4715" y1="82.714" x2="27.4715" y2="81.1437" gradientUnits="userSpaceOnUse">
<stop stop-color="#00232F"/>
<stop offset="0.65" stop-color="#304752"/>
<stop offset="1" stop-color="#445661"/>
</linearGradient>
<linearGradient id="paint4_linear_102_2788" x1="66.6691" y1="87.0325" x2="66.6691" y2="76.8252" gradientUnits="userSpaceOnUse">
<stop stop-color="#00232F"/>
<stop offset="0.4" stop-color="#0C2F3B"/>
<stop offset="1" stop-color="#264955"/>
</linearGradient>
<linearGradient id="paint5_linear_102_2788" x1="65.2634" y1="83.0697" x2="65.2634" y2="76.4816" gradientUnits="userSpaceOnUse">
<stop stop-color="#EEF0F2"/>
<stop offset="0.66" stop-color="#EEF0F2"/>
<stop offset="0.81" stop-color="#DDE0E2"/>
<stop offset="1" stop-color="#C0C5C7"/>
</linearGradient>
<linearGradient id="paint6_linear_102_2788" x1="66.6691" y1="82.714" x2="66.6691" y2="81.1437" gradientUnits="userSpaceOnUse">
<stop stop-color="#00232F"/>
<stop offset="0.65" stop-color="#304752"/>
<stop offset="1" stop-color="#445661"/>
</linearGradient>
<linearGradient id="paint7_linear_102_2788" x1="48.2479" y1="58.3122" x2="48.2479" y2="23.3842" gradientUnits="userSpaceOnUse">
<stop stop-color="#B0B4B7"/>
<stop offset="0.4" stop-color="#B2B6B9"/>
<stop offset="0.54" stop-color="#B9BCBF"/>
<stop offset="0.64" stop-color="#C4C7C9"/>
<stop offset="0.7" stop-color="#D0D1D3"/>
<stop offset="0.77" stop-color="#CDCED1"/>
<stop offset="0.82" stop-color="#C4C5C9"/>
<stop offset="0.86" stop-color="#B4B7BC"/>
<stop offset="0.9" stop-color="#9EA2AA"/>
<stop offset="0.94" stop-color="#818692"/>
<stop offset="0.98" stop-color="#5E6576"/>
<stop offset="0.99" stop-color="#495265"/>
</linearGradient>
<linearGradient id="paint8_linear_102_2788" x1="10.5916" y1="67.4276" x2="69.4054" y2="8.31768" gradientUnits="userSpaceOnUse">
<stop stop-color="#0A0A0A"/>
<stop offset="0.25" stop-color="#9C9C9C"/>
<stop offset="0.5" stop-color="#0D0D0D"/>
<stop offset="0.81" stop-color="#999999"/>
<stop offset="1" stop-color="#080808"/>
</linearGradient>
<linearGradient id="paint9_linear_102_2788" x1="10.9121" y1="67.219" x2="69.088" y2="8.7502" gradientUnits="userSpaceOnUse">
<stop offset="0.01" stop-color="#9A9FA2"/>
<stop offset="0.25" stop-color="#D4D7D9"/>
<stop offset="0.37" stop-color="#C3C6C9"/>
<stop offset="0.6" stop-color="#9A9FA2"/>
<stop offset="0.87" stop-color="#C0C5C7"/>
<stop offset="1" stop-color="#DADDDF"/>
</linearGradient>
<linearGradient id="paint10_linear_102_2788" x1="79.1102" y1="63.8943" x2="79.1102" y2="32.1069" gradientUnits="userSpaceOnUse">
<stop stop-color="#B3B8BA"/>
<stop offset="0.57" stop-color="#D0D3D5"/>
<stop offset="1" stop-color="#E1E3E5"/>
</linearGradient>
<linearGradient id="paint11_linear_102_2788" x1="79.1102" y1="62.0418" x2="79.1102" y2="33.9595" gradientUnits="userSpaceOnUse">
<stop stop-color="#004A1F"/>
<stop offset="0.7" stop-color="#00C837"/>
<stop offset="1" stop-color="#00FF42"/>
</linearGradient>
<linearGradient id="paint12_linear_102_2788" x1="70.2942" y1="48.7551" x2="87.914" y2="48.7551" gradientUnits="userSpaceOnUse">
<stop stop-color="#B3B8BA"/>
<stop offset="0.57" stop-color="#D0D3D5"/>
<stop offset="1" stop-color="#E1E3E5"/>
</linearGradient>
</defs>
</svg>
